<svg width="1536" height="864" xmlns="http://www.w3.org/2000/svg" xmlns:xlink="http://www.w3.org/1999/xlink" overflow="hidden"><defs><clipPath id="clip0"><rect x="0" y="0" width="1536" height="864"/></clipPath></defs><g clip-path="url(#clip0)"><rect x="0" y="0" width="1536" height="864" fill="#FFFFFF"/><path d="M0 43.2008C0 19.3417 19.3417-6.11104e-15 43.2008-1.22221e-14L1492.8 0C1516.66-1.22221e-14 1536 19.3417 1536 43.2008L1536 820.801C1536 844.66 1516.66 864.002 1492.8 864.002L43.2008 864C19.3417 864-6.11104e-15 844.658-6.11104e-15 820.799Z" fill="#003F8F" fill-rule="evenodd"/><path d="M14.5001 56.2999C14.5001 33.2145 33.2145 14.5001 56.2999 14.5001L1480.7 14.5001C1503.79 14.5001 1522.5 33.2145 1522.5 56.2999L1522.5 808.7C1522.5 831.786 1503.79 850.5 1480.7 850.5L56.2999 850.5C33.2145 850.5 14.5001 831.786 14.5001 808.7Z" stroke="#FFFFFF" stroke-width="10.6667" stroke-linejoin="round" stroke-miterlimit="10" fill="none" fill-rule="evenodd"/><path d="M0 43.2008C0 19.3417 19.3417-6.11104e-15 43.2008-1.22221e-14L1492.8 0C1516.66-1.22221e-14 1536 19.3417 1536 43.2008L1536 820.801C1536 844.66 1516.66 864.002 1492.8 864.002L43.2008 864C19.3417 864-6.11104e-15 844.658-6.11104e-15 820.799Z" fill="#003F8F" fill-rule="evenodd"/><text fill="#003F8F" font-family="SimHei,SimHei_MSFontService,sans-serif" font-weight="700" font-size="24" transform="translate(22.2528 443)">南</text><path d="M14.5001 56.2999C14.5001 33.2145 33.2145 14.5001 56.2999 14.5001L1480.7 14.5001C1503.79 14.5001 1522.5 33.2145 1522.5 56.2999L1522.5 808.7C1522.5 831.786 1503.79 850.5 1480.7 850.5L56.2999 850.5C33.2145 850.5 14.5001 831.786 14.5001 808.7Z" stroke="#FFFFFF" stroke-width="10.6667" stroke-linejoin="round" stroke-miterlimit="10" fill="none" fill-rule="evenodd"/><path d="M0 0 152.557 0C172.684-1.20311e-14 189 16.3161 189 36.4431L189 169 0 169Z" fill="#FFFFFF" fill-rule="evenodd" transform="matrix(-1 0 0 1 205 14)"/><text fill="#003F8F" font-family="SimHei,SimHei_MSFontService,sans-serif" font-weight="700" font-size="80" transform="translate(91.6002 111)">南</text><path d="M37.5001 157.5 37.5001 121 59.0001 99.5 80.5001 121 80.5001 157.5 59.0001 136Z" stroke="#4A7EBB" stroke-miterlimit="8" fill="#003F8F" fill-rule="evenodd"/><path d="M494 703 594.8 623 897.2 623 998 703 897.2 783 594.8 783Z" stroke="#FFFFFF" stroke-width="8" stroke-linejoin="round" stroke-miterlimit="10" fill="#003F8F" fill-rule="evenodd"/><text fill="#FFFFFF" font-family="SimHei,SimHei_MSFontService,sans-serif" font-weight="700" font-size="80" transform="translate(586.8 737)">华</text><text fill="#FFFFFF" font-family="SimHei,SimHei_MSFontService,sans-serif" font-weight="700" font-size="80" transform="translate(707.467 737)">山</text><text fill="#FFFFFF" font-family="SimHei,SimHei_MSFontService,sans-serif" font-weight="700" font-size="80" transform="translate(828.134 737)">路</text><rect x="721" y="782" width="47" height="42" fill="#FFFFFF"/><rect x="266" y="688" width="235" height="30" fill="#FFFFFF"/><rect x="991" y="688" width="260" height="30" fill="#FFFFFF"/><path d="M0 0 29.5 0 59 33 29.5 66 0 66 29.5 33Z" fill="#FFFFFF" fill-rule="evenodd" transform="matrix(-1 0 0 1 302 670)"/><text fill="#FFFFFF" font-family="SimHei,SimHei_MSFontService,sans-serif" font-weight="400" font-size="48" transform="translate(345.2 762)">1136</text><text fill="#FFFFFF" font-family="SimHei,SimHei_MSFontService,sans-serif" font-weight="400" font-size="48" transform="translate(1065.2 675)">1245</text><text fill="#FFFFFF" font-family="SimHei,SimHei_MSFontService,sans-serif" font-weight="400" font-size="48" transform="translate(1066.4 762)">1174</text><text fill="#FFFFFF" font-family="SimHei,SimHei_MSFontService,sans-serif" font-weight="700" font-size="107" transform="translate(90.0002 454)">复兴西路</text><text fill="#FFFFFF" font-family="SimHei,SimHei_MSFontService,sans-serif" font-weight="700" font-size="107" transform="translate(905.5 173)">徐</text><text fill="#FFFFFF" font-family="SimHei,SimHei_MSFontService,sans-serif" font-weight="700" font-size="107" transform="translate(1066.5 173)">家</text><text fill="#FFFFFF" font-family="SimHei,SimHei_MSFontService,sans-serif" font-weight="700" font-size="107" transform="translate(1227.5 173)">汇</text><text fill="#FFFFFF" font-family="SimHei,SimHei_MSFontService,sans-serif" font-weight="700" font-size="107" transform="translate(787.2 453)">淮海西</text><text fill="#FFFFFF" font-family="SimHei,SimHei_MSFontService,sans-serif" font-weight="700" font-size="107" transform="translate(1108.7 453)">(</text><text fill="#FFFFFF" font-family="SimHei,SimHei_MSFontService,sans-serif" font-weight="700" font-size="107" transform="translate(1162.53 453)">中</text><text fill="#FFFFFF" font-family="SimHei,SimHei_MSFontService,sans-serif" font-weight="700" font-size="107" transform="translate(1269.7 453)">)</text><text fill="#FFFFFF" font-family="SimHei,SimHei_MSFontService,sans-serif" font-weight="700" font-size="107" transform="translate(1323.53 453)">路</text><text fill="#FFFFFF" font-family="SimHei,SimHei_MSFontService,sans-serif" font-weight="400" font-size="80" transform="translate(91.6002 552)">Fuxing</text><text fill="#FFFFFF" font-family="SimHei,SimHei_MSFontService,sans-serif" font-weight="400" font-size="80" transform="translate(343.6 552)">Rd.(W)</text><text fill="#FFFFFF" font-family="SimHei,SimHei_MSFontService,sans-serif" font-weight="400" font-size="80" transform="translate(905.5 268)">Fuxing</text><text fill="#FFFFFF" font-family="SimHei,SimHei_MSFontService,sans-serif" font-weight="400" font-size="80" transform="translate(1157.5 268)">Rd.(W)</text><text fill="#FFFFFF" font-family="SimHei,SimHei_MSFontService,sans-serif" font-weight="400" font-size="80" transform="translate(822.5 558)">Huaihai</text><text fill="#FFFFFF" font-family="SimHei,SimHei_MSFontService,sans-serif" font-weight="400" font-size="80" transform="translate(1110.5 558)">Rd.(W)(C)</text></g></svg>